<svg width="25" height="60" viewBox="0 0 25 60" fill="none" xmlns="http://www.w3.org/2000/svg">
<path d="M0.673096 12L24.8069 0V59.0019L0.673096 47.0019V12Z" fill="#333333"/>
<path d="M12.7465 21.3521C7.73651 21.3521 3.67651 25.162 3.67651 29.932C3.67651 34.662 7.73651 38.472 12.7465 38.472C17.7465 38.472 21.8065 34.662 21.8065 29.932C21.8065 25.162 17.7465 21.3521 12.7465 21.3521ZM12.7465 34.6621C10.0565 34.6621 7.85651 32.522 7.85651 29.932C7.85651 27.302 10.0565 25.1621 12.7465 25.1621C15.4565 25.1621 17.6265 27.302 17.6265 29.932C17.6265 32.522 15.4565 34.6621 12.7465 34.6621Z" fill="white"/>
</svg>
